<?xml version="1.0" standalone="no"?>
<!DOCTYPE svg PUBLIC "-//W3C//DTD SVG 20010904//EN"
 "http://www.w3.org/TR/2001/REC-SVG-20010904/DTD/svg10.dtd">
<svg version="1.0" xmlns="http://www.w3.org/2000/svg"
 width="256.000000pt" height="256.000000pt" viewBox="0 0 256.000000 256.000000"
 preserveAspectRatio="xMidYMid meet">
<metadata>
Created by potrace 1.14, written by Peter Selinger 2001-2017
</metadata>
<g transform="translate(0.000000,256.000000) scale(0.100000,-0.100000)"
fill="#000000" stroke="none">
<path d="M1880 2375 c0 -5 -26 -10 -58 -11 -48 0 -100 -6 -172 -18 -8 -1 -23
-6 -34 -11 -10 -4 -31 -8 -46 -9 -15 -1 -26 -4 -24 -8 2 -3 -9 -9 -26 -13 -16
-4 -46 -15 -67 -25 -21 -10 -41 -16 -45 -13 -5 2 -8 0 -8 -5 0 -9 -37 -25 -52
-23 -5 1 -8 -3 -8 -8 0 -8 -37 -24 -52 -22 -5 1 -8 -4 -8 -10 0 -6 -7 -8 -16
-5 -8 3 -12 2 -9 -4 9 -15 -11 -12 -27 3 -38 37 -279 141 -357 153 -20 3 -40
8 -44 11 -12 7 -147 9 -147 2 0 -3 -10 -5 -23 -4 -12 1 -26 0 -32 -4 -5 -3
-16 -6 -24 -8 -27 -4 -135 -56 -155 -74 -11 -11 -23 -19 -26 -19 -4 0 -18 -10
-32 -22 -13 -13 -40 -37 -59 -54 -20 -16 -38 -38 -42 -48 -4 -10 -12 -14 -18
-10 -7 4 -9 3 -5 -4 3 -5 -5 -24 -19 -40 -14 -16 -25 -35 -25 -41 0 -6 -5 -11
-10 -11 -6 0 -9 -3 -8 -7 0 -5 -11 -34 -25 -66 -15 -32 -27 -64 -27 -72 0 -7
-4 -16 -9 -20 -6 -3 -10 -13 -9 -23 0 -9 -3 -28 -7 -42 -13 -43 -7 -360 6
-360 6 0 8 -11 12 -55 1 -14 5 -25 9 -25 3 0 10 -14 13 -32 4 -18 11 -39 15
-48 4 -8 14 -28 21 -45 22 -49 108 -187 145 -232 19 -23 34 -43 34 -46 0 -5
26 -33 132 -143 69 -71 185 -176 257 -232 19 -15 43 -35 53 -45 10 -9 22 -17
28 -17 6 0 10 -4 10 -8 0 -4 15 -16 33 -27 17 -10 40 -27 50 -38 9 -11 17 -16
17 -11 0 5 4 4 8 -2 9 -13 252 -176 252 -168 0 3 16 -7 35 -22 37 -28 110 -40
110 -17 0 7 20 27 45 45 25 18 52 40 62 48 9 8 23 20 30 25 60 46 106 83 122
97 10 10 24 14 30 11 6 -3 8 -3 4 2 -7 7 26 40 44 44 4 1 25 19 46 39 81 75
156 137 164 134 4 -1 8 3 8 9 0 6 7 17 15 25 8 9 15 13 15 10 0 -3 21 18 48
47 26 29 55 59 65 68 9 9 17 22 17 28 0 7 3 10 8 8 4 -2 15 4 25 15 9 10 15
18 12 18 -2 0 21 35 52 77 30 43 69 105 85 138 17 33 35 63 40 66 5 3 9 8 7
10 -4 7 34 104 44 110 5 3 7 8 6 10 -1 2 3 20 11 39 7 19 12 41 11 49 -2 8 2
10 10 5 7 -4 10 -3 6 2 -3 6 3 36 14 69 10 32 19 69 19 82 0 13 4 22 8 19 10
-6 8 252 -2 276 -4 9 -9 22 -10 30 -7 34 -20 74 -32 97 -7 13 -11 28 -8 33 3
4 2 8 -3 8 -4 0 -19 21 -33 47 -14 27 -39 63 -57 82 -18 19 -29 39 -26 45 3 6
3 8 -1 4 -11 -9 -46 23 -39 35 3 6 2 7 -4 4 -5 -3 -21 5 -36 19 -14 13 -31 24
-37 24 -6 0 -8 6 -4 13 4 6 4 9 -1 5 -7 -7 -48 11 -83 36 -8 6 -21 11 -30 13
-75 12 -138 29 -144 37 -5 7 -8 7 -8 1z"/>
</g>
</svg>
